<svg xmlns="http://www.w3.org/2000/svg" width="495" height="195" viewBox="0 0 495 195" role="img" aria-label="GitHub stats for Aditya-Bhoye">
<style>
svg{font-family:-apple-system,BlinkMacSystemFont,"Segoe UI",Helvetica,Arial,sans-serif}
.in{opacity:0;animation:in .6s ease-out forwards}
.bar{transform-origin:250px 0;transform:scaleX(0);animation:grow 1.1s .35s cubic-bezier(.2,.8,.2,1) forwards}
@keyframes in{from{opacity:0;transform:translateY(6px)}to{opacity:1;transform:none}}
@keyframes grow{to{transform:scaleX(1)}}
@media (prefers-reduced-motion:reduce){.in,.bar{animation:none;opacity:1;transform:none}}
</style>
<rect x="0.5" y="0.5" width="494" height="194" rx="10" fill="#0d1117" stroke="#21262d"/>
<rect x="0.5" y="0.5" width="494" height="3" rx="1.5" fill="#ff5722"/>
<text x="25" y="38" font-size="16" font-weight="600" fill="#e6edf3">GitHub stats</text>
<text x="250" y="38" font-size="16" font-weight="600" fill="#e6edf3">Top languages</text>
<text x="250" y="54" font-size="10" fill="#8b949e">by size and repositories · notebooks excluded</text>
<g class="in" style="animation-delay:0.15s"><text x="25" y="78" font-size="12" fill="#8b949e">Contributions (last year)</text><text x="25" y="98" font-size="20" font-weight="700" fill="#ff5722">181</text></g><g class="in" style="animation-delay:0.27s"><text x="25" y="116" font-size="12" fill="#8b949e">Public repositories</text><text x="25" y="136" font-size="20" font-weight="700" fill="#ff5722">22</text></g><g class="in" style="animation-delay:0.39s"><text x="25" y="154" font-size="12" fill="#8b949e">Stars earned</text><text x="25" y="174" font-size="20" font-weight="700" fill="#ff5722">4</text></g>
<clipPath id="track"><rect x="250" y="66" width="220" height="8" rx="4"/></clipPath>
<g clip-path="url(#track)"><rect x="250" y="66" width="220" height="8" fill="#161b22"/><g class="bar"><rect x="250" y="66" width="74.69" height="8" fill="#ff5722"/><rect x="324.69" y="66" width="44.64" height="8" fill="#ff8a65"/><rect x="369.33" y="66" width="37.6" height="8" fill="#d4141a"/><rect x="406.93" y="66" width="34.11" height="8" fill="#b33a16"/><rect x="441.04" y="66" width="28.96" height="8" fill="#ffccbc"/></g></g>
<g class="in" style="animation-delay:0.3s"><circle cx="255" cy="94" r="4.5" fill="#ff5722"/><text x="266" y="98" font-size="12" fill="#e6edf3">HTML</text><text x="470" y="98" font-size="12" text-anchor="end" fill="#8b949e">33.9%</text></g><g class="in" style="animation-delay:0.4s"><circle cx="255" cy="113" r="4.5" fill="#ff8a65"/><text x="266" y="117" font-size="12" fill="#e6edf3">TypeScript</text><text x="470" y="117" font-size="12" text-anchor="end" fill="#8b949e">20.3%</text></g><g class="in" style="animation-delay:0.5s"><circle cx="255" cy="132" r="4.5" fill="#d4141a"/><text x="266" y="136" font-size="12" fill="#e6edf3">Dart</text><text x="470" y="136" font-size="12" text-anchor="end" fill="#8b949e">17.1%</text></g><g class="in" style="animation-delay:0.6s"><circle cx="255" cy="151" r="4.5" fill="#b33a16"/><text x="266" y="155" font-size="12" fill="#e6edf3">JavaScript</text><text x="470" y="155" font-size="12" text-anchor="end" fill="#8b949e">15.5%</text></g><g class="in" style="animation-delay:0.7s"><circle cx="255" cy="170" r="4.5" fill="#ffccbc"/><text x="266" y="174" font-size="12" fill="#e6edf3">CSS</text><text x="470" y="174" font-size="12" text-anchor="end" fill="#8b949e">13.2%</text></g>
</svg>
